<svg id="Layer_1" data-name="Layer 1" xmlns="http://www.w3.org/2000/svg" viewBox="0 0 299.83 57.35"><defs><style>.cls-1{fill:currentColor;}</style></defs><path class="cls-1" d="M1.27,57.35c.65-2.23.58-5,.58-8.17V8.34c0-3.18.07-5.94-.58-8.06h5.5a32.54,32.54,0,0,0-.59,8.06V49.18a33.9,33.9,0,0,0,.59,8.17Z" transform="translate(-1.27)"/><path class="cls-1" d="M11.36,15.55l-.89-.29a10,10,0,0,0,2.13-2.94c.66-1.39.08-1.17-.66-1.76A3.47,3.47,0,0,1,11,9.46a2.77,2.77,0,0,1-.23-2.28,3,3,0,0,1,3.75-1.69,3,3,0,0,1,1.76,3.67A14.29,14.29,0,0,1,11.36,15.55Z" transform="translate(-1.27)"/><path class="cls-1" d="M55.62,47.8a37,37,0,0,0-.23-6.61L52.53,17.9l-14,34.6h-.51L24.1,18,21.16,41.19A36,36,0,0,0,21,47.8H17.42A18.57,18.57,0,0,0,19,41.48L23.07,7.69h.81L39.52,45.52,55,7.69h.74L60,41.48a18.57,18.57,0,0,0,1.54,6.32Z" transform="translate(-1.27)"/><path class="cls-1" d="M88.22,56.82,85.66,36H71.78L62.44,56.82H59.06a39.5,39.5,0,0,0,4.55-8.12L85.43,0H86L92,48.81a21.68,21.68,0,0,0,2.15,8ZM82.74,11.55,73.52,32.06H85.2Z" transform="translate(-1.27)"/><path class="cls-1" d="M109.88,48.83c-6.14,0-13.23-3.45-16-13.14-3.52-12.35,4.17-26.82,16-26.9a16.1,16.1,0,0,1,9.77,3.32l.36,6.83c-2.45-4.49-6.32-7.5-10.13-7.5-10.14,0-13.3,9.7-13,17.27.47,11.09,7.15,17.62,13,17.48A11.84,11.84,0,0,0,119.9,41l.78,2.94A15.07,15.07,0,0,1,109.88,48.83Z" transform="translate(-1.27)"/><path class="cls-1" d="M137.46,48.43c-6.14,0-13.23-3.46-16-13.15-3.52-12.34,4.17-26.81,16-26.89a16.15,16.15,0,0,1,9.77,3.31l.36,6.83C145.1,14.05,141.22,11,137.41,11c-10.14,0-13.3,9.69-13,17.26.48,11.1,7.15,17.63,13,17.49a11.85,11.85,0,0,0,10.07-5.22l.78,2.94A15.1,15.1,0,0,1,137.46,48.43Z" transform="translate(-1.27)"/><path class="cls-1" d="M171.93,48.46H151.06c.59-1.54.59-2.34.59-5.65V14.52a15.82,15.82,0,0,0-.59-5.58h20.06L172.44,12a13.87,13.87,0,0,0-5.58-.88H156v13h14.18l-.74,2.28H156V46.19h11.75a15,15,0,0,0,5.29-1Z" transform="translate(-1.27)"/><path class="cls-1" d="M173,45.18s5.85,7.93,12.34,7.76a9.25,9.25,0,0,0,8.85-7.43c1.25-7.17-2.3-9.28-8-12.91-6.48-4.22-12.55-7.17-11.57-14.93.63-5.07,6-11.22,16-8.44,1.39.34,2.29.51,5.71,2.54l.42,4.38a16.12,16.12,0,0,0-6.13-4.38c-6.76-2.88-11.16.67-11.65,6.23-.48,4.9,4.89,7.6,9.69,10.56,7.39,4.46,11,8.52,9.83,16.7-1,6.32-7.45,10.21-13.38,10-3.49-.08-5.93-.42-11.64-4.46Z" transform="translate(-1.27)"/><path class="cls-1" d="M196.59,45.18s5.86,7.93,12.34,7.76a9.25,9.25,0,0,0,8.85-7.43c1.26-7.17-2.3-9.28-7.95-12.91-6.48-4.22-12.54-7.17-11.57-14.93.63-5.07,6-11.22,16-8.44,1.39.34,2.29.51,5.71,2.54l.42,4.38a16.12,16.12,0,0,0-6.13-4.38c-6.76-2.88-11.16.67-11.64,6.23-.49,4.9,4.88,7.6,9.68,10.56,7.39,4.46,11,8.52,9.83,16.7-1,6.32-7.45,10.21-13.38,10-3.48-.08-5.92-.42-11.64-4.46Z" transform="translate(-1.27)"/><path class="cls-1" d="M223.72,48.46c.66-1.54.58-3.44.58-5.65V14.52c0-2.2.08-4.11-.58-5.58h5.5a16.08,16.08,0,0,0-.58,5.58V42.81a16.68,16.68,0,0,0,.58,5.65Z" transform="translate(-1.27)"/><path class="cls-1" d="M241.25,48.46H230.82c.59-1.54.59-2.34.59-5.65V14.52c0-3.3,0-4.11-.59-5.58h8.67c10.5,0,13.37,3.6,13.44,8.45.08,3.53-2.05,5.66-5.43,7.42,0,0,7.79,1.32,8.37,11.53C256.39,45.6,248.53,48.46,241.25,48.46Zm-1.32-37.31h-4.19v13h6.1c4.48,0,7.2-2.94,7.12-5.95C248.75,11.66,241.47,11.15,239.93,11.15Zm.22,15.28h-4.41V46.19h6c7.63,0,9.84-5.22,9.91-9C251.68,30.1,247.13,26.43,240.15,26.43Z" transform="translate(-1.27)"/><path class="cls-1" d="M277.76,48.46H256.9c.59-1.54.59-2.34.59-5.65V14.52a15.82,15.82,0,0,0-.59-5.58h5.44c-.59,1.47-.52,3.38-.52,5.58V46.19h11.76a15,15,0,0,0,5.29-1Z" transform="translate(-1.27)"/><path class="cls-1" d="M300,48.46H279.13c.59-1.54.59-2.34.59-5.65V14.52a15.82,15.82,0,0,0-.59-5.58h20.05L300.5,12a13.87,13.87,0,0,0-5.58-.88H284.05v13h14.18l-.74,2.28H284.05V46.19H295.8a15.09,15.09,0,0,0,5.3-1Z" transform="translate(-1.27)"/></svg>