<svg xmlns="http://www.w3.org/2000/svg">
    <!-- menu icon -->
    <symbol id="i_menu" viewBox="0 0 12 10">
        <path fill-rule="evenodd" clip-rule="evenodd" d="M0 9.44444C0 9.2971 0.0574675 9.15579 0.15976 9.05161C0.262053 8.94742 0.400791 8.88889 0.545455 8.88889H11.4545C11.5992 8.88889 11.7379 8.94742 11.8402 9.05161C11.9425 9.15579 12 9.2971 12 9.44444C12 9.59179 11.9425 9.7331 11.8402 9.83728C11.7379 9.94147 11.5992 10 11.4545 10H0.545455C0.400791 10 0.262053 9.94147 0.15976 9.83728C0.0574675 9.7331 0 9.59179 0 9.44444ZM0 5C0 4.85266 0.0574675 4.71135 0.15976 4.60716C0.262053 4.50298 0.400791 4.44444 0.545455 4.44444H11.4545C11.5992 4.44444 11.7379 4.50298 11.8402 4.60716C11.9425 4.71135 12 4.85266 12 5C12 5.14734 11.9425 5.28865 11.8402 5.39284C11.7379 5.49702 11.5992 5.55556 11.4545 5.55556H0.545455C0.400791 5.55556 0.262053 5.49702 0.15976 5.39284C0.0574675 5.28865 0 5.14734 0 5ZM0 0.555556C0 0.408213 0.0574675 0.266905 0.15976 0.162719C0.262053 0.0585317 0.400791 0 0.545455 0H11.4545C11.5992 0 11.7379 0.0585317 11.8402 0.162719C11.9425 0.266905 12 0.408213 12 0.555556C12 0.702898 11.9425 0.844206 11.8402 0.948393C11.7379 1.05258 11.5992 1.11111 11.4545 1.11111H0.545455C0.400791 1.11111 0.262053 1.05258 0.15976 0.948393C0.0574675 0.844206 0 0.702898 0 0.555556Z" />
    </symbol>
          
     <!-- cart icon -->
    <symbol id="i_cart" viewBox="0 0 32 32">
       <path fill-rule="evenodd" clip-rule="evenodd" d="M6.31253 12.8556C6.31253 12.8556 6.31253 12.8556 6.31253 12.8556L4.25332 25.7789L3.23261 25.6273L4.25332 25.7789C4.08007 26.8661 4.95134 27.8467 6.09071 27.8467H25.9265C27.0658 27.8467 27.9371 26.8661 27.7639 25.7789L27.7639 25.7789L25.7047 12.8556C25.5652 11.9799 24.7848 11.3336 23.8673 11.3336H8.14994C7.23239 11.3336 6.45206 11.9799 6.31253 12.8556ZM4.10765 12.528C4.41461 10.6017 6.13131 9.17969 8.14994 9.17969H23.8673C25.8859 9.17969 27.6026 10.6017 27.9096 12.528L29.9688 25.4514C30.3499 27.8434 28.433 30.0006 25.9265 30.0006H6.09071C3.58412 30.0006 1.66728 27.8434 2.04844 25.4514L4.10765 12.528L4.10765 12.528Z" />
        <path fill-rule="evenodd" clip-rule="evenodd" d="M11.918 5.94879C11.918 3.76794 13.749 2 16.0078 2C18.2666 2 20.0976 3.76794 20.0976 5.94879C20.0976 6.54357 19.5983 7.02573 18.9822 7.02573C18.3662 7.02573 17.8668 6.54357 17.8668 5.94879C17.8668 4.95748 17.0345 4.15388 16.0078 4.15388C14.9811 4.15388 14.1488 4.95748 14.1488 5.94879C14.1488 6.54357 13.6494 7.02573 13.0334 7.02573C12.4174 7.02573 11.918 6.54357 11.918 5.94879Z" />
    </symbol>
    <!-- facebook icon -->
    <symbol id="i_facebook" viewBox="0 0 16 16">
        <path d="M16 8.049c0-4.446-3.582-8.05-8-8.05C3.58 0-.002 3.603-.002 8.05c0 4.017 2.926 7.347 6.75 7.951v-5.625h-2.03V8.05H6.75V6.275c0-2.017 1.195-3.131 3.022-3.131.876 0 1.791.157 1.791.157v1.98h-1.009c-.993 0-1.303.621-1.303 1.258v1.51h2.218l-.354 2.326H9.25V16c3.824-.604 6.75-3.934 6.75-7.951"/>
    </symbol>
    <!-- instagram icon -->
    <symbol id="i_instagram" viewBox="0 0 16 16">
       <path d="M8 0C5.829 0 5.556.01 4.703.048 3.85.088 3.269.222 2.76.42a3.9 3.9 0 0 0-1.417.923A3.9 3.9 0 0 0 .42 2.76C.222 3.268.087 3.85.048 4.7.01 5.555 0 5.827 0 8.001c0 2.172.01 2.444.048 3.297.04.852.174 1.433.372 1.942.205.526.478.972.923 1.417.444.445.89.719 1.416.923.51.198 1.09.333 1.942.372C5.555 15.99 5.827 16 8 16s2.444-.01 3.298-.048c.851-.04 1.434-.174 1.943-.372a3.9 3.9 0 0 0 1.416-.923c.445-.445.718-.891.923-1.417.197-.509.332-1.09.372-1.942C15.99 10.445 16 10.173 16 8s-.01-2.445-.048-3.299c-.04-.851-.175-1.433-.372-1.941a3.9 3.9 0 0 0-.923-1.417A3.9 3.9 0 0 0 13.24.42c-.51-.198-1.092-.333-1.943-.372C10.443.01 10.172 0 7.998 0zm-.717 1.442h.718c2.136 0 2.389.007 3.232.046.78.035 1.204.166 1.486.275.373.145.64.319.92.599s.453.546.598.92c.11.281.24.705.275 1.485.039.843.047 1.096.047 3.231s-.008 2.389-.047 3.232c-.035.78-.166 1.203-.275 1.485a2.5 2.5 0 0 1-.599.919c-.28.28-.546.453-.92.598-.28.11-.704.24-1.485.276-.843.038-1.096.047-3.232.047s-2.39-.009-3.233-.047c-.78-.036-1.203-.166-1.485-.276a2.5 2.5 0 0 1-.92-.598 2.5 2.5 0 0 1-.6-.92c-.109-.281-.24-.705-.275-1.485-.038-.843-.046-1.096-.046-3.233s.008-2.388.046-3.231c.036-.78.166-1.204.276-1.486.145-.373.319-.64.599-.92s.546-.453.92-.598c.282-.11.705-.24 1.485-.276.738-.034 1.024-.044 2.515-.045zm4.988 1.328a.96.96 0 1 0 0 1.92.96.96 0 0 0 0-1.92m-4.27 1.122a4.109 4.109 0 1 0 0 8.217 4.109 4.109 0 0 0 0-8.217m0 1.441a2.667 2.667 0 1 1 0 5.334 2.667 2.667 0 0 1 0-5.334"/>
    </symbol>
    <!-- x icon -->
    <symbol id="i_x" viewBox="0 0 16 16">
        <path d="M12.6.75h2.454l-5.36 6.142L16 15.25h-4.937l-3.867-5.07-4.425 5.07H.316l5.733-6.57L0 .75h5.063l3.495 4.633L12.601.75Zm-.86 13.028h1.36L4.323 2.145H2.865z"/>
    </symbol>
    <!-- example icon -->
    <symbol id="i_play" viewBox="0 0 16 16">
        <path d="M16 8A8 8 0 1 1 0 8a8 8 0 0 1 16 0M6.79 5.093A.5.5 0 0 0 6 5.5v5a.5.5 0 0 0 .79.407l3.5-2.5a.5.5 0 0 0 0-.814z"/>
    </symbol>
       
    <!-- example icon -->
    <symbol id="example" viewBox="0 0 12 12">
       
    </symbol>

</svg>

